<svg xmlns="http://www.w3.org/2000/svg" viewBox="0 0 133.858 27.47">
  <defs>
    <style>
      .cls-1 {
        fill: #fff;
      }
    </style>
  </defs>
  <path id="Union_1" data-name="Union 1" class="cls-1" d="M118.429,27.47h-4.146l.528-5.189h8.525a4.467,4.467,0,0,0,1.758-.354,4.291,4.291,0,0,0,1.464-1,4.95,4.95,0,0,0,1-1.518,4.851,4.851,0,0,0,.372-1.908,5.008,5.008,0,0,0-.372-2,4.323,4.323,0,0,0-.984-1.428,3.964,3.964,0,0,0-1.35-.846,4.248,4.248,0,0,0-1.518-.276,5.115,5.115,0,0,0-2.46.7,6.348,6.348,0,0,0-2.2,2.112l-3.443-1.3L117.085,0h14.506l-3.551,4.793H121.56l-.516,4.775A6.3,6.3,0,0,1,123.264,8.4a10.459,10.459,0,0,1,2.592-.276,7.926,7.926,0,0,1,3.221.648,7.067,7.067,0,0,1,2.538,1.872,8.755,8.755,0,0,1,1.65,2.964,11.991,11.991,0,0,1,.594,3.887,9.569,9.569,0,0,1-.834,3.983,9.811,9.811,0,0,1-2.28,3.168,10.416,10.416,0,0,1-3.347,2.076,11.01,11.01,0,0,1-3.876.732l-.006.012Zm-14.752,0H96.388V26.462l10.624-14.356c.27-.372.5-.714.7-1.038a6.822,6.822,0,0,0,.5-.978,5.121,5.121,0,0,0,.294-1.038,6.951,6.951,0,0,0,.1-1.242,3.111,3.111,0,0,0-.774-2.112,2.683,2.683,0,0,0-2.112-.888,3.853,3.853,0,0,0-2.142.762,2.89,2.89,0,0,0-.852,1.146,4.751,4.751,0,0,0-.318,1.872v6.041L96.388,22.6V16.486H87.329V27.47H81.312V5.087H74.521V27.47H68.5V5.087H63.063a10.094,10.094,0,0,0-2.5-4.067V.006H87.335V11.4h9.059l-.006-2.226V8.585a8.589,8.589,0,0,1,.78-3.791,7.9,7.9,0,0,1,2.076-2.682,8.551,8.551,0,0,1,2.982-1.59,11.726,11.726,0,0,1,3.5-.522A11.2,11.2,0,0,1,109.1.5a8.414,8.414,0,0,1,2.814,1.458A6.82,6.82,0,0,1,113.821,4.4a7.878,7.878,0,0,1,.7,3.407,8.141,8.141,0,0,1-.738,3.594,17.428,17.428,0,0,1-1.812,2.922l-6.113,7.961h7.427L112.7,27.47Zm-47.933,0L48.107,14.494l-.4-.756v-.12c0-.654-.03-1.284-.09-1.908h4.331a3.324,3.324,0,0,0,2.5-.942,3.48,3.48,0,0,0,.924-2.556,2.825,2.825,0,0,0-1-2.28A3.544,3.544,0,0,0,52.2,5.105H45.6a13.887,13.887,0,0,0-2.256-3A15.013,15.013,0,0,0,42.126,1.02h.006V.006H53.056V.054a10.806,10.806,0,0,1,2.8.576,9.07,9.07,0,0,1,2.993,1.71,7.357,7.357,0,0,1,1.9,2.592,8.087,8.087,0,0,1,.66,3.275,7.453,7.453,0,0,1-1.716,5.057,8.813,8.813,0,0,1-4.421,2.73l6.653,10.468V27.47Zm-37.009,0L6.623,11.482a9.711,9.711,0,0,1-.678-1.128c.048.576.072,1.038.072,1.392V27.47H0V.006H5.189L17.314,15.85a9.719,9.719,0,0,1,.678,1.128c-.054-.576-.078-1.038-.078-1.392v-2a14.28,14.28,0,0,1,.984-5.3,12.764,12.764,0,0,1,7.115-7.211A14.516,14.516,0,0,1,31.639.012a14.966,14.966,0,0,1,5.627,1.02A12.624,12.624,0,0,1,41.58,3.858a12.325,12.325,0,0,1,2.748,4.313,14.968,14.968,0,0,1,.966,5.447,14.842,14.842,0,0,1-.984,5.411,13.161,13.161,0,0,1-2.784,4.409,13.027,13.027,0,0,1-4.337,2.952,14.3,14.3,0,0,1-5.579,1.074h-.048v-.006a2.544,2.544,0,0,1,0-5.087v-.006a7.04,7.04,0,0,0,3.227-.732,7.366,7.366,0,0,0,2.442-1.944,8.836,8.836,0,0,0,1.53-2.808,10.178,10.178,0,0,0,.528-3.257,9.78,9.78,0,0,0-.546-3.293,8.532,8.532,0,0,0-1.548-2.718,7.388,7.388,0,0,0-2.406-1.836,7.176,7.176,0,0,0-3.15-.672,6.9,6.9,0,0,0-3.132.708,7.811,7.811,0,0,0-2.442,1.9,8.891,8.891,0,0,0-1.584,2.718,9.119,9.119,0,0,0-.564,3.15h.006V27.47Z" transform="translate(0)"/>
</svg>
