<svg xmlns="http://www.w3.org/2000/svg" viewBox="0 0 218 212">
  <defs>
    <style>
      .cls-1, .cls-5 {
        fill: none;
      }

      .cls-1, .cls-2 {
        stroke: #eaeaea;
        stroke-width: 3px;
      }

      .cls-2 {
        fill: #fff;
      }

      .cls-3 {
        fill: #ba8748;
      }

      .cls-4 {
        stroke: none;
      }
    </style>
  </defs>
  <g id="Group_3743" data-name="Group 3743" transform="translate(22667 16583)">
    <g id="Ellipse_33" data-name="Ellipse 33" class="cls-1" transform="translate(-22667 -16583)">
      <circle class="cls-4" cx="106" cy="106" r="106"/>
      <circle class="cls-5" cx="106" cy="106" r="104.5"/>
    </g>
    <g id="Ellipse_34" data-name="Ellipse 34" class="cls-2" transform="translate(-22465 -16486)">
      <circle class="cls-4" cx="8" cy="8" r="8"/>
      <circle class="cls-5" cx="8" cy="8" r="6.5"/>
    </g>
    <g id="noun_Architecture_1250955" transform="translate(-22633.9 -16549.35)">
      <g id="Group_3639" data-name="Group 3639" transform="translate(17.9 17.35)">
        <g id="Group_3638" data-name="Group 3638">
          <g id="Group_3635" data-name="Group 3635" transform="translate(57.502 4.365)">
            <path id="Path_1311" data-name="Path 1311" d="M70.534,71.408a1.947,1.947,0,0,1-1.679-.672,2.434,2.434,0,0,1,0-3.526L96.388,39.005,83.125,26.078l-26.694,27.2a2.493,2.493,0,0,1-3.526-3.526L81.279,20.705a2.434,2.434,0,0,1,3.526,0l16.789,16.453a3.727,3.727,0,0,1,.839,1.847,2.525,2.525,0,0,1-.672,1.847L72.38,70.736A2.525,2.525,0,0,1,70.534,71.408Z" transform="translate(-52.15 -19.95)"/>
          </g>
          <g id="Group_3634" data-name="Group 3634" transform="translate(7.087 57.418)">
            <path id="Path_1310" data-name="Path 1310" class="cls-3" d="M24.6,100.825a1.947,1.947,0,0,1-1.679-.672,2.417,2.417,0,0,1-.672-2.518l7.723-24.679a3.512,3.512,0,0,1,.672-1.007L49.619,52.305a2.493,2.493,0,1,1,3.526,3.526L34.509,74.97,28.465,94.445,47.772,87.9,65.9,69.262a2.493,2.493,0,0,1,3.526,3.526L50.962,91.927a3.512,3.512,0,0,1-1.007.672l-24.512,8.227Z" transform="translate(-22.122 -51.55)"/>
          </g>
          <g id="Group_3633" data-name="Group 3633">
            <g id="Group_3620" data-name="Group 3620" transform="translate(24.26 7.555)">
              <path id="Path_1298" data-name="Path 1298" d="M34.952,31.5a2.525,2.525,0,0,1-1.847-.672,2.434,2.434,0,0,1,0-3.526l4.7-4.7a2.493,2.493,0,0,1,3.526,3.526L36.8,30.664A2.7,2.7,0,0,1,34.952,31.5Z" transform="translate(-32.35 -21.85)"/>
            </g>
            <g id="Group_3632" data-name="Group 3632">
              <g id="Group_3621" data-name="Group 3621">
                <path id="Path_1299" data-name="Path 1299" d="M102.683,126.729a2.525,2.525,0,0,1-1.847-.672L18.572,43.624a2.525,2.525,0,0,1-.672-1.847,3.521,3.521,0,0,1,.672-1.847L40.4,18.105a2.434,2.434,0,0,1,3.526,0l82.433,82.6a2.525,2.525,0,0,1,.672,1.847,3.521,3.521,0,0,1-.672,1.847L104.53,126.225A3.384,3.384,0,0,1,102.683,126.729ZM23.944,41.946l78.907,78.907,18.132-18.468L42.076,23.478Z" transform="translate(-17.9 -17.35)"/>
              </g>
              <g id="Group_3622" data-name="Group 3622" transform="translate(25.939 13.431)">
                <path id="Path_1300" data-name="Path 1300" d="M35.952,39.033a2.525,2.525,0,0,1-1.847-.672,2.434,2.434,0,0,1,0-3.526l8.73-8.73a2.493,2.493,0,1,1,3.526,3.526L37.8,38.193A2.7,2.7,0,0,1,35.952,39.033Z" transform="translate(-33.35 -25.35)"/>
              </g>
              <g id="Group_3623" data-name="Group 3623" transform="translate(36.683 19.979)">
                <path id="Path_1301" data-name="Path 1301" d="M42.352,38.9a2.525,2.525,0,0,1-1.847-.672,2.434,2.434,0,0,1,0-3.526l4.7-4.7a2.493,2.493,0,1,1,3.526,3.526l-4.7,4.7A1.947,1.947,0,0,1,42.352,38.9Z" transform="translate(-39.75 -29.25)"/>
              </g>
              <g id="Group_3624" data-name="Group 3624" transform="translate(38.362 25.855)">
                <path id="Path_1302" data-name="Path 1302" d="M43.352,46.433a2.525,2.525,0,0,1-1.847-.672,2.434,2.434,0,0,1,0-3.526l8.73-8.73a2.493,2.493,0,1,1,3.526,3.526l-8.73,8.73A2.565,2.565,0,0,1,43.352,46.433Z" transform="translate(-40.75 -32.75)"/>
              </g>
              <g id="Group_3625" data-name="Group 3625" transform="translate(49.275 32.402)">
                <path id="Path_1303" data-name="Path 1303" d="M49.852,46.3a2.525,2.525,0,0,1-1.847-.672,2.434,2.434,0,0,1,0-3.526l4.7-4.7a2.493,2.493,0,1,1,3.526,3.526l-4.7,4.7A1.947,1.947,0,0,1,49.852,46.3Z" transform="translate(-47.25 -36.65)"/>
              </g>
              <g id="Group_3626" data-name="Group 3626" transform="translate(50.954 38.278)">
                <path id="Path_1304" data-name="Path 1304" d="M50.852,53.833a2.525,2.525,0,0,1-1.847-.672,2.434,2.434,0,0,1,0-3.526l8.73-8.73a2.493,2.493,0,1,1,3.526,3.526l-8.73,8.73A2.155,2.155,0,0,1,50.852,53.833Z" transform="translate(-48.25 -40.15)"/>
              </g>
              <g id="Group_3627" data-name="Group 3627" transform="translate(61.699 44.994)">
                <path id="Path_1305" data-name="Path 1305" d="M57.252,53.8a2.525,2.525,0,0,1-1.847-.672,2.434,2.434,0,0,1,0-3.526l4.7-4.7a2.493,2.493,0,0,1,3.526,3.526l-4.7,4.7A2.565,2.565,0,0,1,57.252,53.8Z" transform="translate(-54.65 -44.15)"/>
              </g>
              <g id="Group_3628" data-name="Group 3628" transform="translate(63.378 50.87)">
                <path id="Path_1306" data-name="Path 1306" d="M58.252,61.333a2.525,2.525,0,0,1-1.847-.672,2.434,2.434,0,0,1,0-3.526l8.73-8.73a2.493,2.493,0,1,1,3.526,3.526l-8.73,8.73A2.565,2.565,0,0,1,58.252,61.333Z" transform="translate(-55.65 -47.65)"/>
              </g>
              <g id="Group_3629" data-name="Group 3629" transform="translate(74.29 57.418)">
                <path id="Path_1307" data-name="Path 1307" d="M64.752,61.2a2.525,2.525,0,0,1-1.847-.672,2.434,2.434,0,0,1,0-3.526l4.7-4.7a2.493,2.493,0,1,1,3.526,3.526l-4.7,4.7A2.4,2.4,0,0,1,64.752,61.2Z" transform="translate(-62.15 -51.55)"/>
              </g>
              <g id="Group_3630" data-name="Group 3630" transform="translate(75.969 63.294)">
                <path id="Path_1308" data-name="Path 1308" d="M65.752,68.733a2.525,2.525,0,0,1-1.847-.672,2.434,2.434,0,0,1,0-3.526l8.73-8.73a2.493,2.493,0,1,1,3.526,3.526l-8.73,8.73A2.4,2.4,0,0,1,65.752,68.733Z" transform="translate(-63.15 -55.05)"/>
              </g>
              <g id="Group_3631" data-name="Group 3631" transform="translate(86.714 70.009)">
                <path id="Path_1309" data-name="Path 1309" d="M72.152,68.7a2.525,2.525,0,0,1-1.847-.672,2.434,2.434,0,0,1,0-3.526l4.7-4.7a2.493,2.493,0,0,1,3.526,3.526l-4.7,4.7A2.565,2.565,0,0,1,72.152,68.7Z" transform="translate(-69.55 -59.05)"/>
              </g>
            </g>
          </g>
          <g id="Group_3637" data-name="Group 3637" transform="translate(14.858 83.608)">
            <path id="Path_1313" data-name="Path 1313" class="cls-3" d="M39.761,82.512a2.525,2.525,0,0,1-1.847-.672L27.505,71.431a2.493,2.493,0,0,1,3.526-3.526L41.44,78.315a2.434,2.434,0,0,1,0,3.526A1.947,1.947,0,0,1,39.761,82.512Z" transform="translate(-26.75 -67.15)"/>
          </g>
          <g id="Group_3636" data-name="Group 3636" transform="translate(77.648 13.263)">
            <path id="Path_1312" data-name="Path 1312" d="M82.534,45.984a2.525,2.525,0,0,1-1.847-.672L64.905,29.531a2.493,2.493,0,0,1,3.526-3.526L84.213,41.787a2.434,2.434,0,0,1,0,3.526A1.947,1.947,0,0,1,82.534,45.984Z" transform="translate(-64.15 -25.25)"/>
          </g>
        </g>
      </g>
    </g>
  </g>
</svg>
