<svg xmlns="http://www.w3.org/2000/svg" viewBox="0 0 78.93 108.527">
  <defs>
    <style>
      .cls-1 {
        fill: #fff;
      }

      .cls-2 {
        fill: #ba8748;
      }
    </style>
  </defs>
  <g id="Group_3649" data-name="Group 3649" transform="translate(-8929 -3278)">
    <rect id="Rectangle_828" data-name="Rectangle 828" class="cls-1" width="14" height="13" transform="translate(8976 3368)"/>
    <rect id="Rectangle_827" data-name="Rectangle 827" class="cls-1" width="73" height="91" transform="translate(8933 3282)"/>
    <path id="Subtraction_2" data-name="Subtraction 2" d="M46,98.663H2.467A4.577,4.577,0,0,1,.722,97.94,2.485,2.485,0,0,1,0,96.195V2.467A2.464,2.464,0,0,1,2.467,0h74a2.45,2.45,0,0,1,1.744.722,2.48,2.48,0,0,1,.722,1.745V96.195a2.48,2.48,0,0,1-.722,1.745,4.57,4.57,0,0,1-1.744.722H61V93.729H74V4.933H4.933v88.8H46v4.933ZM27.132,78.929H17.266a2.466,2.466,0,0,1,0-4.933h9.867a2.466,2.466,0,0,1,0,4.933Zm34.531-29.6h-44.4a2.466,2.466,0,0,1,0-4.933h44.4a2.466,2.466,0,1,1,0,4.933Zm0-14.8h-44.4a2.466,2.466,0,0,1,0-4.933h44.4a2.466,2.466,0,1,1,0,4.933Zm0-14.8h-44.4a2.466,2.466,0,0,1,0-4.933h44.4a2.466,2.466,0,1,1,0,4.933Z" transform="translate(8929 3278)"/>
    <g id="noun_Certificate_1826752" transform="translate(8913 3274)">
      <g id="Group_3640" data-name="Group 3640" transform="translate(16 4)">
        <path id="Path_1314" data-name="Path 1314" class="cls-2" d="M60.4,102.662v7.4a2.467,2.467,0,0,0,3.835,2.052l6.031-4.02,6.031,4.02a2.467,2.467,0,0,0,3.835-2.053v-7.4ZM70.264,92.8a9.866,9.866,0,1,1,9.866-9.866A9.866,9.866,0,0,1,70.264,92.8ZM75.2,105.453l-3.565-2.377a2.46,2.46,0,0,0-2.736,0l-3.565,2.378V96.819a13.837,13.837,0,0,0,9.866,0Zm4.933-7.725V93.879a14.8,14.8,0,1,0-19.732,0v8.782H80.13Z" transform="translate(-16 -4)"/>
      </g>
    </g>
  </g>
</svg>
