<svg xmlns="http://www.w3.org/2000/svg" viewBox="0 0 131.43 87.93">
  <defs>
    <style>
      .cls-1 {
        fill: #ba8748;
      }
    </style>
  </defs>
  <g id="Group_3650" data-name="Group 3650" transform="translate(-9649 -3288)">
    <g id="noun_Handshake_614045" transform="translate(9644.884 3268.688)">
      <path id="Path_1319" data-name="Path 1319" d="M135.256,60.748l-19.8-39.634a2.865,2.865,0,0,0-3.839-1.289L94.433,28.419a2.865,2.865,0,0,0-1.289,3.839l18.449,36.955A70.187,70.187,0,0,1,93.23,83.781L62.047,99.909c-.387.2-.759.415-1.146.645a6.631,6.631,0,0,1-1.862.874,6.517,6.517,0,0,1-2.277-.086,3.108,3.108,0,0,1-2.492-1.7l-.186-.731a56.753,56.753,0,0,0,6.546-3.38c.874-.5,1.733-.988,2.564-1.432L72.9,88.88A2.865,2.865,0,1,0,70.2,83.838l-9.683,5.214c-.888.473-1.79.988-2.707,1.518-4.011,2.306-8.165,4.67-12.29,4.154a2.048,2.048,0,0,1-1.876-1.375,7.291,7.291,0,0,1-.115-1.948q0-.129,0-.258L68.464,79.684a2.865,2.865,0,0,0-2.378-5.214L40.447,86.259a1.576,1.576,0,0,1-1.619-.186L37.4,85a1.59,1.59,0,0,1-.5-1.676,2.865,2.865,0,0,0,.115-.831,7.707,7.707,0,0,0,1.7-.6l22.145-9.626a2.867,2.867,0,1,0-2.292-5.257L36.422,76.7a1.848,1.848,0,0,1-1.79-3.209L51.218,66a2.866,2.866,0,0,0-2.349-5.228L32.1,68.354l-.286.158A7.592,7.592,0,0,0,31.537,81.4c0,.086-.086.172-.115.258a7.334,7.334,0,0,0,2.521,7.921l1.432,1.074a7.277,7.277,0,0,0,2.464,1.218,10.628,10.628,0,0,0,.329,3.051,7.62,7.62,0,0,0,6.675,5.5,15.312,15.312,0,0,0,1.962.129,15.946,15.946,0,0,0,1.833-.115l.1.43c.659,3.037,3.237,5.314,6.9,6.1a12.446,12.446,0,0,0,2.607.272,11.776,11.776,0,0,0,1.561-.143,10.815,10.815,0,0,0,3.939-1.6l.888-.5,31.183-16.1a74.871,74.871,0,0,0,19.7-15.441h0a2.865,2.865,0,0,0,1.275-.3l17.189-8.594A2.865,2.865,0,0,0,135.256,60.748Zm-18.435,6L99.633,32.244l12.018-6,17.189,34.506Z" transform="translate(0)"/>
    </g>
    <g id="noun_Handshake_614045-2" data-name="noun_Handshake_614045" transform="translate(9644.884 3268.688)">
      <path id="Path_1319-2" data-name="Path 1319" class="cls-1" d="M42.309,34.106a7.305,7.305,0,0,0,5.916-.415L53.5,30.826a1.547,1.547,0,0,1,1.2-.115l30.624,9.4a1.576,1.576,0,0,1,1,2.077l-.315.8a1.576,1.576,0,0,1-1.848.945l-15.326-3.9a7.276,7.276,0,0,0-8.007,3.223l-3.968,6.388a1.576,1.576,0,0,1-1.218.731l-16.63,1.189a2.867,2.867,0,1,0,.2,5.73h.2l16.63-1.189a7.319,7.319,0,0,0,5.73-3.423L65.743,46.3a1.576,1.576,0,0,1,1.719-.688l15.269,3.939a7.319,7.319,0,0,0,8.594-4.4l.315-.8a7.305,7.305,0,0,0-4.612-9.726L56.375,25.3a7.262,7.262,0,0,0-5.572.53l-5.271,2.865a1.576,1.576,0,0,1-1.275.086l-2.235-.816A2.865,2.865,0,0,0,40.1,25.6L21.926,19.467a2.865,2.865,0,0,0-3.653,1.819L4.265,63.269a2.865,2.865,0,0,0,1.8,3.624l18.177,6.073a2.877,2.877,0,0,0,3.624-1.819L40.475,33.4ZM23.358,66.649l-12.748-4.3L22.829,25.769l12.748,4.3Z" transform="translate(0)"/>
    </g>
  </g>
</svg>
