<svg xmlns="http://www.w3.org/2000/svg" viewBox="0 0 273.001 56.023">
  <defs>
    <style>
      .cls-1 {
        fill: #fff;
      }
    </style>
  </defs>
  <path id="Union_1" data-name="Union 1" class="cls-1" d="M241.532,56.024h-8.455l1.077-10.583H251.54a9.11,9.11,0,0,0,3.585-.722,8.751,8.751,0,0,0,2.986-2.031,10.1,10.1,0,0,0,2.043-3.1,9.893,9.893,0,0,0,.759-3.891,10.214,10.214,0,0,0-.759-4.074,8.816,8.816,0,0,0-2.006-2.912,8.084,8.084,0,0,0-2.753-1.725,8.663,8.663,0,0,0-3.1-.563,10.432,10.432,0,0,0-5.016,1.431,12.948,12.948,0,0,0-4.491,4.307l-7.023-2.643L238.791,0h29.584l-7.243,9.776H247.919l-1.052,9.739a12.858,12.858,0,0,1,4.527-2.374,21.329,21.329,0,0,1,5.286-.563,16.165,16.165,0,0,1,6.57,1.321,14.412,14.412,0,0,1,5.175,3.817,17.854,17.854,0,0,1,3.365,6.044A24.455,24.455,0,0,1,273,35.69a19.517,19.517,0,0,1-1.7,8.124,20.01,20.01,0,0,1-4.649,6.46,21.243,21.243,0,0,1-6.827,4.233A22.454,22.454,0,0,1,251.92,56l-.012.024Zm-30.086,0H196.581V53.969l21.668-29.278c.551-.759,1.028-1.456,1.432-2.117a13.915,13.915,0,0,0,1.016-1.994,10.447,10.447,0,0,0,.6-2.117,14.174,14.174,0,0,0,.2-2.533,6.345,6.345,0,0,0-1.578-4.307,5.472,5.472,0,0,0-4.307-1.811,7.858,7.858,0,0,0-4.368,1.554A5.9,5.9,0,0,0,209.5,13.7a9.69,9.69,0,0,0-.648,3.817V29.841L196.581,46.09V33.622H178.106v22.4H165.834V10.375h-13.85V56.024H139.712V10.375h-11.1a20.586,20.586,0,0,0-5.09-8.3V.012h54.593V23.259h18.475l-.012-4.539V17.508a17.516,17.516,0,0,1,1.591-7.732A16.115,16.115,0,0,1,202.4,4.307a17.439,17.439,0,0,1,6.081-3.242A23.915,23.915,0,0,1,215.618,0a22.833,22.833,0,0,1,6.888,1.028A17.161,17.161,0,0,1,228.245,4a13.91,13.91,0,0,1,3.891,4.98,16.067,16.067,0,0,1,1.432,6.949,16.6,16.6,0,0,1-1.5,7.329,35.545,35.545,0,0,1-3.7,5.959L215.9,45.453h15.147l-1.2,10.571Zm-97.758,0L98.113,29.56l-.82-1.542v-.245c0-1.334-.061-2.618-.183-3.891h8.834a6.78,6.78,0,0,0,5.1-1.921,7.1,7.1,0,0,0,1.884-5.212A5.762,5.762,0,0,0,110.9,12.1a7.229,7.229,0,0,0-4.441-1.689H93a28.322,28.322,0,0,0-4.6-6.118A30.619,30.619,0,0,0,85.915,2.08h.012V.012h22.28v.1a22.038,22.038,0,0,1,5.7,1.175,18.5,18.5,0,0,1,6.105,3.487,15,15,0,0,1,3.866,5.286,16.494,16.494,0,0,1,1.346,6.68,15.2,15.2,0,0,1-3.5,10.314,17.974,17.974,0,0,1-9.017,5.567l13.569,21.35v2.055Zm-75.478,0-24.7-32.606a19.806,19.806,0,0,1-1.383-2.3c.1,1.175.147,2.117.147,2.839V56.024H0V.012H10.583L35.311,32.325a19.822,19.822,0,0,1,1.383,2.3c-.11-1.175-.159-2.117-.159-2.839V27.7a29.123,29.123,0,0,1,2.007-10.816A26.031,26.031,0,0,1,53.051,2.178,29.6,29.6,0,0,1,64.528.025,30.523,30.523,0,0,1,76,2.1a25.747,25.747,0,0,1,8.8,5.763,25.135,25.135,0,0,1,5.6,8.8,30.527,30.527,0,0,1,1.97,11.11A30.269,30.269,0,0,1,90.368,38.81,26.841,26.841,0,0,1,84.691,47.8a26.569,26.569,0,0,1-8.846,6.02,29.154,29.154,0,0,1-11.378,2.19h-.1V56a5.188,5.188,0,0,1,0-10.375v-.012a14.358,14.358,0,0,0,6.582-1.493,15.022,15.022,0,0,0,4.98-3.964,18.02,18.02,0,0,0,3.12-5.726,20.759,20.759,0,0,0,1.077-6.644,19.947,19.947,0,0,0-1.113-6.717,17.4,17.4,0,0,0-3.157-5.542,15.067,15.067,0,0,0-4.906-3.744,14.635,14.635,0,0,0-6.423-1.37,14.077,14.077,0,0,0-6.387,1.444,15.93,15.93,0,0,0-4.98,3.866,18.133,18.133,0,0,0-3.23,5.543,18.6,18.6,0,0,0-1.15,6.423h.012V56.024Z" transform="translate(0 0)"/>
</svg>
