<?xml version="1.0" encoding="utf-8"?>
<!-- Generator: Adobe Illustrator 19.0.0, SVG Export Plug-In . SVG Version: 6.00 Build 0)  -->
<svg version="1.1" id="Layer_1" xmlns="http://www.w3.org/2000/svg" xmlns:xlink="http://www.w3.org/1999/xlink" x="0px" y="0px"
	 width="218px" height="212px" viewBox="-188 314.9 218 212" style="enable-background:new -188 314.9 218 212;"
	 xml:space="preserve">
<style type="text/css">
	.st0{fill:none;}
	.st1{fill:#EAEAEA;}
	.st2{fill:#FFFFFF;}
	.st3{fill:#BA8748;}
</style>
<g id="Group_3743" transform="translate(22667 16583)">
	<g id="Ellipse_33" transform="translate(-22667 -16583)">
		<circle class="st0" cx="-82" cy="420.9" r="106"/>
		<path class="st1" d="M-82,526.9c-58.4,0-106-47.6-106-106s47.6-106,106-106c58.4,0,106,47.6,106,106S-23.6,526.9-82,526.9z
			 M-82,317.9c-56.8,0-103,46.2-103,103s46.2,103,103,103c56.8,0,103-46.2,103-103S-25.2,317.9-82,317.9z"/>
	</g>
	<g id="Ellipse_34" transform="translate(-22465 -16486)">
		<circle class="st2" cx="-180" cy="322.9" r="8"/>
		<path class="st1" d="M-180,330.9c-4.4,0-8-3.6-8-8c0-4.4,3.6-8,8-8s8,3.6,8,8C-172,327.3-175.6,330.9-180,330.9z M-180,317.9
			c-2.8,0-5,2.2-5,5c0,2.8,2.2,5,5,5s5-2.2,5-5C-175,320.1-177.2,317.9-180,317.9z"/>
	</g>
	<g id="noun_Architecture_1250955" transform="translate(-22633.9 -16549.35)">
		<g id="Group_3639" transform="translate(17.9 17.35)">
			<g id="Group_3638">
				<g id="Group_3635" transform="translate(57.502 4.365)">
					<path id="Path_1311" d="M-169.6,366.3c-0.6,0.1-1.3-0.2-1.7-0.7c-1-0.9-1-2.5-0.1-3.4c0,0,0.1-0.1,0.1-0.1l27.5-28.2L-157,321
						l-26.7,27.2c-1,1-2.6,1-3.5,0c-1-1-1-2.6,0-3.5l0,0l28.4-29c0.9-1,2.5-1,3.4-0.1c0,0,0.1,0.1,0.1,0.1l16.8,16.5
						c0.4,0.5,0.7,1.2,0.8,1.8c0,0.7-0.2,1.3-0.7,1.8l-29.4,29.9C-168.3,366.1-168.9,366.4-169.6,366.3z"/>
				</g>
				<g id="Group_3634" transform="translate(7.087 57.418)">
					<path id="Path_1310" class="st3" d="M-185.5,364.2c-0.6,0.1-1.3-0.2-1.7-0.7c-0.7-0.6-1-1.6-0.7-2.5l7.7-24.7
						c0.2-0.4,0.4-0.7,0.7-1l19-19.6c1-1,2.6-1,3.5,0c1,1,1,2.6,0,3.5l-18.6,19.1l-6,19.5l19.3-6.5l18.1-18.6c1-1,2.6-1,3.5,0
						c1,1,1,2.6,0,3.5l-18.5,19.1c-0.3,0.3-0.6,0.5-1,0.7l-24.5,8.2L-185.5,364.2z"/>
				</g>
				<g id="Group_3633">
					<g id="Group_3620" transform="translate(24.26 7.555)">
						<path id="Path_1298" d="M-185.4,324.5c-0.7,0-1.3-0.2-1.8-0.7c-1-0.9-1-2.5-0.1-3.4c0,0,0.1-0.1,0.1-0.1l4.7-4.7
							c1-1,2.6-1,3.5,0c1,1,1,2.6,0,3.5l0,0l-4.5,4.5C-184,324.2-184.7,324.5-185.4,324.5z"/>
					</g>
					<g id="Group_3632">
						<g id="Group_3621">
							<path id="Path_1299" d="M-103.2,424.3c-0.7,0-1.3-0.2-1.8-0.7l-82.3-82.4c-0.5-0.5-0.7-1.2-0.7-1.8c0-0.7,0.3-1.3,0.7-1.8
								l21.8-21.8c0.9-1,2.5-1,3.4-0.1c0,0,0.1,0.1,0.1,0.1l82.4,82.6c0.5,0.5,0.7,1.2,0.7,1.8c0,0.7-0.3,1.3-0.7,1.8l-21.8,21.8
								C-101.9,424.1-102.6,424.3-103.2,424.3z M-182,339.5l78.9,78.9l18.1-18.5l-78.9-78.9L-182,339.5z"/>
						</g>
						<g id="Group_3622" transform="translate(25.939 13.431)">
							<path id="Path_1300" d="M-185.4,328.6c-0.7,0-1.3-0.2-1.8-0.7c-1-0.9-1-2.5-0.1-3.4c0,0,0.1-0.1,0.1-0.1l8.7-8.7
								c1-1,2.6-1,3.5,0c1,1,1,2.6,0,3.5l0,0l-8.6,8.6C-184,328.2-184.7,328.5-185.4,328.6z"/>
						</g>
						<g id="Group_3623" transform="translate(36.683 19.979)">
							<path id="Path_1301" d="M-185.4,324.5c-0.7,0-1.3-0.2-1.8-0.7c-1-0.9-1-2.5-0.1-3.4c0,0,0.1-0.1,0.1-0.1l4.7-4.7
								c1-1,2.6-1,3.5,0c1,1,1,2.6,0,3.5l0,0l-4.7,4.7C-184.1,324.4-184.8,324.6-185.4,324.5z"/>
						</g>
						<g id="Group_3624" transform="translate(38.362 25.855)">
							<path id="Path_1302" d="M-185.4,328.6c-0.7,0-1.3-0.2-1.8-0.7c-1-0.9-1-2.5-0.1-3.4c0,0,0.1-0.1,0.1-0.1l8.7-8.7
								c1-1,2.6-1,3.5,0c1,1,1,2.6,0,3.5l-8.7,8.7C-184.2,328.3-184.8,328.6-185.4,328.6z"/>
						</g>
						<g id="Group_3625" transform="translate(49.275 32.402)">
							<path id="Path_1303" d="M-185.4,324.5c-0.7,0-1.3-0.2-1.8-0.7c-1-0.9-1-2.5-0.1-3.4c0,0,0.1-0.1,0.1-0.1l4.7-4.7
								c1-1,2.6-1,3.5,0c1,1,1,2.6,0,3.5l-4.7,4.7C-184.1,324.4-184.8,324.6-185.4,324.5z"/>
						</g>
						<g id="Group_3626" transform="translate(50.954 38.278)">
							<path id="Path_1304" d="M-185.4,328.6c-0.7,0-1.3-0.2-1.8-0.7c-1-0.9-1-2.5-0.1-3.4c0,0,0.1-0.1,0.1-0.1l8.7-8.7
								c1-1,2.6-1,3.5,0c1,1,1,2.6,0,3.5l0,0l-8.7,8.7C-184.2,328.4-184.8,328.6-185.4,328.6z"/>
						</g>
						<g id="Group_3627" transform="translate(61.699 44.994)">
							<path id="Path_1305" d="M-185.4,324.5c-0.7,0-1.3-0.2-1.8-0.7c-1-0.9-1-2.5-0.1-3.4c0,0,0.1-0.1,0.1-0.1l4.7-4.7
								c1-1,2.6-1,3.5,0c1,1,1,2.6,0,3.5l-4.7,4.7C-184.2,324.3-184.8,324.5-185.4,324.5z"/>
						</g>
						<g id="Group_3628" transform="translate(63.378 50.87)">
							<path id="Path_1306" d="M-185.4,328.6c-0.7,0-1.3-0.2-1.8-0.7c-1-0.9-1-2.5-0.1-3.4c0,0,0.1-0.1,0.1-0.1l8.7-8.7
								c1-1,2.6-1,3.5,0c1,1,1,2.6,0,3.5l-8.7,8.7C-184.2,328.3-184.8,328.6-185.4,328.6z"/>
						</g>
						<g id="Group_3629" transform="translate(74.29 57.418)">
							<path id="Path_1307" d="M-185.4,324.5c-0.7,0-1.3-0.2-1.8-0.7c-1-0.9-1-2.5-0.1-3.4c0,0,0.1-0.1,0.1-0.1l4.7-4.7
								c1-1,2.6-1,3.5,0c1,1,1,2.6,0,3.5l-4.7,4.7C-184.2,324.3-184.8,324.5-185.4,324.5z"/>
						</g>
						<g id="Group_3630" transform="translate(75.969 63.294)">
							<path id="Path_1308" d="M-185.4,328.6c-0.7,0-1.3-0.2-1.8-0.7c-1-0.9-1-2.5-0.1-3.4c0,0,0.1-0.1,0.1-0.1l8.7-8.7
								c1-1,2.6-1,3.5,0c1,1,1,2.6,0,3.5l-8.7,8.7C-184.2,328.3-184.8,328.6-185.4,328.6z"/>
						</g>
						<g id="Group_3631" transform="translate(86.714 70.009)">
							<path id="Path_1309" d="M-185.4,324.5c-0.7,0-1.3-0.2-1.8-0.7c-1-0.9-1-2.5-0.1-3.4c0,0,0.1-0.1,0.1-0.1l4.7-4.7
								c1-1,2.6-1,3.5,0c1,1,1,2.6,0,3.5l-4.7,4.7C-184.2,324.3-184.8,324.5-185.4,324.5z"/>
						</g>
					</g>
				</g>
				<g id="Group_3637" transform="translate(14.858 83.608)">
					<path id="Path_1313" class="st3" d="M-175,330.3c-0.7,0-1.3-0.2-1.8-0.7l-10.4-10.4c-1-1-1-2.6,0-3.5c1-1,2.6-1,3.5,0
						l10.4,10.4c1,0.9,1,2.5,0.1,3.4c0,0-0.1,0.1-0.1,0.1C-173.7,330.1-174.4,330.3-175,330.3z"/>
				</g>
				<g id="Group_3636" transform="translate(77.648 13.263)">
					<path id="Path_1312" d="M-169.6,335.6c-0.7,0-1.3-0.2-1.8-0.7l-15.8-15.8c-1-1-1-2.6,0-3.5c1-1,2.6-1,3.5,0l15.8,15.8
						c1,0.9,1,2.5,0.1,3.4c0,0-0.1,0.1-0.1,0.1C-168.4,335.4-169,335.7-169.6,335.6z"/>
				</g>
			</g>
		</g>
	</g>
</g>
</svg>
