<svg xmlns="http://www.w3.org/2000/svg" viewBox="0 0 419.076 144.037">
  <defs>
    <style>
      .cls-1 {
        fill: #fff;
      }
    </style>
  </defs>
  <path id="Path_1276" data-name="Path 1276" class="cls-1" d="M293.166,92.68V67.735H270.313V92.68H256.472v15.289h13.841v49.085a21.261,21.261,0,0,0,2.092,10.139,14.909,14.909,0,0,0,5.713,5.955,23.721,23.721,0,0,0,8.369,2.816,66.713,66.713,0,0,0,10.059.724q3.38,0,6.92-.161a54.383,54.383,0,0,0,6.437-.644v-17.7a32.015,32.015,0,0,1-3.38.483q-1.77.161-3.7.161-5.794,0-7.725-1.931t-1.931-7.725v-41.2H309.9V92.68Zm41.521,41.682a49.933,49.933,0,0,1,.966-9.817,25.047,25.047,0,0,1,3.3-8.53,17.576,17.576,0,0,1,15.852-8.369,18.827,18.827,0,0,1,9.737,2.334,18.3,18.3,0,0,1,6.277,6.035,25.047,25.047,0,0,1,3.3,8.53,49.933,49.933,0,0,1,.966,9.817,48.728,48.728,0,0,1-.966,9.737,25.939,25.939,0,0,1-3.3,8.53,17.371,17.371,0,0,1-6.277,6.035,19.366,19.366,0,0,1-9.737,2.253,18.914,18.914,0,0,1-9.656-2.253,17.572,17.572,0,0,1-6.2-6.035,25.939,25.939,0,0,1-3.3-8.53A48.728,48.728,0,0,1,334.687,134.363Zm-22.853,0a50.417,50.417,0,0,0,3.058,18.025,39.1,39.1,0,0,0,8.691,13.76,38.017,38.017,0,0,0,13.519,8.771,48.636,48.636,0,0,0,17.7,3.058,49.284,49.284,0,0,0,17.783-3.058,37.876,37.876,0,0,0,13.6-8.771,39.1,39.1,0,0,0,8.691-13.76,50.416,50.416,0,0,0,3.058-18.025,51.076,51.076,0,0,0-3.058-18.105,37.894,37.894,0,0,0-22.29-22.692A48.153,48.153,0,0,0,354.8,90.427a47.522,47.522,0,0,0-17.7,3.138,38.051,38.051,0,0,0-22.209,22.692A51.077,51.077,0,0,0,311.834,134.363Zm153.533-.322a50.763,50.763,0,0,1-.966,9.978,27.044,27.044,0,0,1-3.219,8.61,17.115,17.115,0,0,1-6.035,6.035,18.124,18.124,0,0,1-9.415,2.253,16.981,16.981,0,0,1-9.093-2.334,20.076,20.076,0,0,1-6.277-6.116,26.371,26.371,0,0,1-3.621-8.61,42.368,42.368,0,0,1-1.127-9.656,45.876,45.876,0,0,1,1.046-9.9,26.32,26.32,0,0,1,3.38-8.449,17.814,17.814,0,0,1,6.2-5.955,18.566,18.566,0,0,1,9.5-2.253,17.689,17.689,0,0,1,9.334,2.253,18.575,18.575,0,0,1,6.035,5.874,24.189,24.189,0,0,1,3.3,8.369A49.555,49.555,0,0,1,465.367,134.041Zm.322,31.222v10.622h21.726V60.976H464.563v41.843h-.322A24.532,24.532,0,0,0,453.7,93.566a32.717,32.717,0,0,0-14.082-3.138,33.6,33.6,0,0,0-27.6,13.2,42.038,42.038,0,0,0-6.92,13.76,56.162,56.162,0,0,0-2.334,16.174A59.79,59.79,0,0,0,405.1,150.3a44.552,44.552,0,0,0,6.92,14.243,32.952,32.952,0,0,0,11.668,9.817,35.576,35.576,0,0,0,16.415,3.621A35.055,35.055,0,0,0,454.826,175a23.574,23.574,0,0,0,10.541-9.737Zm31.543-46.993a26.547,26.547,0,0,1,4.023-13.358,27.4,27.4,0,0,1,9.012-8.53A39.274,39.274,0,0,1,522.58,91.8a70,70,0,0,1,13.76-1.368,93.253,93.253,0,0,1,12.714.885,38.893,38.893,0,0,1,11.748,3.46,23.148,23.148,0,0,1,8.691,7.162q3.38,4.587,3.38,12.151v43.292a86.949,86.949,0,0,0,.644,10.783,19.491,19.491,0,0,0,2.253,7.725H552.595a32.79,32.79,0,0,1-1.046-3.943,34.332,34.332,0,0,1-.563-4.1,29.78,29.78,0,0,1-12.875,7.886,51.677,51.677,0,0,1-15.128,2.253,40.871,40.871,0,0,1-11.1-1.448,25.432,25.432,0,0,1-9.012-4.506,20.977,20.977,0,0,1-6.035-7.725,26.119,26.119,0,0,1-2.173-11.1,24.26,24.26,0,0,1,2.494-11.668,20.857,20.857,0,0,1,6.437-7.323,28.843,28.843,0,0,1,9.012-4.1,96.21,96.21,0,0,1,10.219-2.173q5.15-.8,10.139-1.287a60.974,60.974,0,0,0,8.852-1.448,15.43,15.43,0,0,0,6.116-2.816,6.182,6.182,0,0,0,2.092-5.391,12.126,12.126,0,0,0-1.207-5.874,8.876,8.876,0,0,0-3.219-3.38,12.662,12.662,0,0,0-4.667-1.609,38.192,38.192,0,0,0-5.713-.4q-6.759,0-10.622,2.9t-4.506,9.656Zm52.787,16.9a10.251,10.251,0,0,1-3.621,2.012,36.986,36.986,0,0,1-4.667,1.207q-2.494.483-5.23.8t-5.472.8a41.27,41.27,0,0,0-5.07,1.287,14.989,14.989,0,0,0-4.345,2.173,10.328,10.328,0,0,0-2.977,3.46,11.131,11.131,0,0,0-1.127,5.311,10.75,10.75,0,0,0,1.127,5.15,8.637,8.637,0,0,0,3.058,3.3,12.905,12.905,0,0,0,4.506,1.69,28.761,28.761,0,0,0,5.311.483q6.759,0,10.461-2.253a15.07,15.07,0,0,0,5.472-5.391,17.241,17.241,0,0,0,2.173-6.357,43.667,43.667,0,0,0,.4-5.15Zm75.157,51.017,34.762-93.5H636.281L618.1,149.652h-.322L598.944,92.68h-24.3l29.129,78.054a13.737,13.737,0,0,1,.966,5.15,11.408,11.408,0,0,1-2.173,6.759,8.879,8.879,0,0,1-6.679,3.541,47.413,47.413,0,0,1-6.759-.161q-3.38-.322-6.6-.644v18.83q3.541.322,7,.563t7,.241q11.748,0,18.347-4.345T625.177,186.184ZM650.283,151.1v24.784H675.55V151.1Z" transform="translate(-256.473 -60.977)"/>
</svg>
